    <svg
              width="93"
              height="93"
              viewBox="0 0 93 93"
              fill="none"
              xmlns="http://www.w3.org/2000/svg"
            >
              <path
                d="M31 62H24.1034C24.1031 68.3925 21.5635 74.5231 17.0433 79.0433C12.5231 83.5635 6.39252 86.1031 0 86.1034V93C17.1228 93 31 79.1214 31 62Z"
                fill="#22BBB9"
              />
              <path
                d="M17 62H9.90721C9.9042 64.6266 8.85945 67.1448 7.00214 69.0021C5.14483 70.8594 2.62663 71.9042 0 71.9072V79C2.23252 79.0002 4.44322 78.5606 6.50584 77.7063C8.56846 76.8521 10.4426 75.5999 12.0212 74.0212C13.5999 72.4426 14.8521 70.5685 15.7063 68.5058C16.5606 66.4432 17.0002 64.2325 17 62Z"
                fill="#22BBB9"
              />
              <path
                d="M93 31H86.1031C86.1035 27.8348 85.4803 24.7005 84.2692 21.7761C83.0581 18.8517 81.2827 16.1945 79.0445 13.9562C76.8062 11.718 74.149 9.94245 71.2245 8.73109C68.3 7.51973 65.1655 6.89624 62 6.89624V0C79.1208 0 93 13.8794 93 31Z"
                fill="#4285F4"
              />
              <path
                d="M79 31H71.9072C71.9042 28.3734 70.8595 25.8552 69.0021 23.9979C67.1448 22.1405 64.6266 21.0958 62 21.0928V14C66.5087 14 70.8327 15.7911 74.0208 18.9792C77.2089 22.1673 79 26.4913 79 31Z"
                fill="#F16522"
              />
              <path d="M31 31H0V62H31V31Z" fill="#22BBB9" />
              <path d="M93 47V31H78L93 47Z" fill="#73572A" />
              <path d="M62 31V46.4993L77.4993 62H93L62 31Z" fill="#4285F4" />
              <path d="M0 41.3338L20.6662 62H31V51.6662L10.3338 31H0V41.3338Z" fill="#FBBC05" />
              <path d="M31 20.6662L10.3338 0H0V10.3338L20.6662 31H31V20.6662Z" fill="#FBBC05" />
              <path
                d="M31 15.5049C30.9996 18.2404 31.6464 20.9277 32.8752 23.2967C34.104 25.6657 35.8715 27.6327 38 29V2C35.8716 3.36704 34.1041 5.33384 32.8753 7.70258C31.6465 10.0713 30.9997 12.7585 31 15.4938V15.5049Z"
                fill="#EE4036"
              />
              <path
                d="M55 2.07398C52.5682 0.70996 49.8083 -0.00552524 47 3.21288e-05V31H48.5077C50.7949 30.7926 53.0088 30.1068 54.9971 28.9896L55 2.07398Z"
                fill="#34A853"
              />
              <path
                d="M66.6593 88.3486C68.6304 90.3202 71.086 91.738 73.7789 92.4594C76.4719 93.1807 79.3073 93.1802 82 92.4579L62.5418 73C61.8198 75.6929 61.8194 78.5283 62.5407 81.2214C63.262 83.9144 64.6796 86.3701 66.6508 88.3415L66.6593 88.3486Z"
                fill="#FBBC05"
              />
              <path
                d="M73.9621 62C71.3276 62.7051 68.9258 64.0955 67 66.0304L88.9217 88L89.9586 86.9609C91.3848 85.2408 92.4224 83.2315 93 81.0712L73.9621 62Z"
                fill="#34A853"
              />
              <path
                d="M46.6343 85.3764C51.2221 85.3195 54.8952 81.5542 54.8383 76.9664C54.7815 72.3785 51.0162 68.7054 46.4284 68.7623C41.8405 68.8191 38.1674 72.5844 38.2243 77.1723C38.2811 81.7601 42.0464 85.4332 46.6343 85.3764Z"
                fill="#34A853"
              />
              <path
                d="M31 46.5041C31.0008 49.5695 31.9105 52.5658 33.6141 55.1142C35.3177 57.6626 37.7387 59.6486 40.5709 60.8212C43.4032 61.9937 46.5195 62.3002 49.5259 61.7018C52.5323 61.1033 55.2938 59.6269 57.4611 57.4592C59.6285 55.2914 61.1044 52.5297 61.7023 49.5232C62.3002 46.5167 61.9932 43.4004 60.8201 40.5684C59.6471 37.7364 57.6606 35.3157 55.1119 33.6126C52.5632 31.9095 49.5668 31.0003 46.5014 31C44.4654 30.9998 42.4494 31.4007 40.5684 32.1799C38.6874 32.959 36.9784 34.1011 35.5389 35.5408C34.0994 36.9806 32.9576 38.6898 32.1788 40.571C31.4 42.4521 30.9995 44.4682 31 46.5041ZM54.7989 46.5041C54.7989 48.1458 54.3121 49.7506 53.4001 51.1155C52.488 52.4805 51.1917 53.5444 49.675 54.1726C48.1583 54.8009 46.4894 54.9652 44.8793 54.645C43.2692 54.3247 41.7902 53.5342 40.6294 52.3733C39.4686 51.2125 38.6781 49.7335 38.3578 48.1234C38.0375 46.5133 38.2019 44.8444 38.8301 43.3277C39.4583 41.8111 40.5222 40.5147 41.8872 39.6027C43.2522 38.6906 44.857 38.2038 46.4986 38.2038C47.5889 38.2035 48.6685 38.4179 49.6759 38.8348C50.6832 39.2518 51.5986 39.8632 52.3696 40.6339C53.1407 41.4047 53.7523 42.3199 54.1696 43.3271C54.5869 44.3343 54.8017 45.4139 54.8017 46.5041H54.7989Z"
                fill="#FBBC05"
              />
            </svg>