<svg
              width="93"
              height="93"
              viewBox="0 0 93 93"
              fill="none"
              xmlns="http://www.w3.org/2000/svg"
            >
              <path
                d="M93 0V6.67468C86.8142 6.67503 80.8817 9.13254 76.5074 13.5067C72.1331 17.8809 69.6751 23.8136 69.6741 30H63C63 13.4335 76.4309 0 93 0Z"
                fill="#22BBB9"
              />
              <path
                d="M93 15V21.2594C90.3739 21.262 87.8561 22.1837 85.9989 23.8222C84.1416 25.4608 83.0965 27.6824 83.0928 30H76C76.0008 26.0215 77.7922 22.2062 80.9802 19.3932C84.1682 16.5803 88.4918 15 93 15Z"
                fill="#22BBB9"
              />
              <path d="M47 0H63V16L47 0Z" fill="#EE4036" />
              <path d="M63 30H46.5L30 15.0007V0L63 30Z" fill="#34A853" />
              <path d="M16 0H8V30H16V0Z" fill="#34A853" />
              <path d="M30 0H23V30H30V0Z" fill="#F16522" />
              <path d="M30 23H0V30H30V23Z" fill="#F16522" />
              <path d="M30 8H0V16H30V8Z" fill="#EE4036" />
              <path
                d="M30 63H23.3253C23.3257 59.6307 22.7226 56.2943 21.5506 53.1814C20.3785 50.0684 18.6605 47.2398 16.4945 44.8572C14.3286 42.4745 11.7571 40.5844 8.92692 39.2948C6.09678 38.0052 3.06341 37.3414 0 37.3412V30C16.5679 30 30 44.7763 30 63Z"
                fill="#34A853"
              />
              <path
                d="M17 63H9.90722C9.90421 60.2189 8.85946 57.5525 7.00215 55.586C5.14484 53.6194 2.62663 52.5132 0 52.51V45C2.23252 44.9998 4.44321 45.4652 6.50583 46.3698C8.56845 47.2743 10.4426 48.6001 12.0212 50.2716C13.5999 51.9431 14.8521 53.9275 15.7063 56.1115C16.5606 58.2954 17.0002 60.6361 17 63Z"
                fill="#4285F4"
              />
              <path d="M63 93V78.0007L77.9993 63H93L63 93Z" fill="#D4AF35" />
              <path
                d="M67.423 34.6526C69.2958 32.6799 71.6292 31.2615 74.1882 30.5401C76.7472 29.8188 79.4416 29.82 82 30.5436L63.5136 50C62.8287 47.3082 62.8288 44.474 63.5139 41.7822C64.1989 39.0904 65.5448 36.6359 67.4163 34.6653L67.423 34.6526Z"
                fill="#FBBC05"
              />
              <path
                d="M73.695 62C71.1612 61.2959 68.8514 59.9057 67 57.9707L88.0848 36L89.0819 37.0388C90.4521 38.7584 91.4477 40.7674 92 42.927L73.695 62Z"
                fill="#4285F4"
              />
              <path
                d="M46.5 55C48.1812 55 49.8245 54.5015 51.2224 53.5675C52.6202 52.6335 53.7096 51.306 54.353 49.7528C54.9963 48.1996 55.1646 46.4906 54.8367 44.8417C54.5087 43.1929 53.6991 41.6783 52.5104 40.4896C51.3217 39.3009 49.8071 38.4913 48.1583 38.1633C46.5094 37.8354 44.8004 38.0037 43.2472 38.647C41.694 39.2904 40.3665 40.3798 39.4325 41.7777C38.4985 43.1755 38 44.8189 38 46.5C37.9998 47.6163 38.2196 48.7217 38.6467 49.753C39.0738 50.7844 39.6999 51.7215 40.4892 52.5108C41.2785 53.3002 42.2156 53.9263 43.247 54.3534C44.2783 54.7805 45.3837 55.0002 46.5 55Z"
                fill="#EE4036"
              />
              <path
                d="M46.5015 93C49.7648 92.9997 52.9547 92.1198 55.668 90.4714C58.3812 88.823 60.4958 86.4802 61.7444 83.7393C62.993 80.9984 63.3196 77.9825 62.6828 75.0728C62.0459 72.1632 60.4744 69.4906 58.1667 67.3929C55.8591 65.2953 52.9191 63.8668 49.7184 63.2881C46.5178 62.7095 43.2003 63.0066 40.1854 64.1419C37.1705 65.2773 34.5936 67.1999 32.7806 69.6666C30.9677 72.1333 30 75.0333 30 78C30 79.9699 30.4268 81.9206 31.2561 83.7406C32.0854 85.5605 33.3009 87.2142 34.8333 88.6071C36.3656 90 38.1847 91.1048 40.1867 91.8586C42.1888 92.6123 44.3346 93.0002 46.5015 93ZM46.5015 86.0333C44.7537 86.0336 43.0451 85.5626 41.5917 84.6801C40.1384 83.7975 39.0055 82.543 38.3365 81.0751C37.6674 79.6073 37.4922 77.992 37.833 76.4336C38.1738 74.8752 39.0153 73.4437 40.251 72.3201C41.4868 71.1965 43.0613 70.4312 44.7755 70.1212C46.4897 69.8111 48.2665 69.9701 49.8813 70.5781C51.4961 71.1861 52.8762 72.2157 53.8473 73.5368C54.8183 74.8579 55.3366 76.4111 55.3366 78C55.3366 80.1303 54.4058 82.1734 52.7489 83.6799C51.0921 85.1864 48.8448 86.0329 46.5015 86.0333Z"
                fill="#4285F4"
              />
            </svg>