  <svg
              width="101"
              height="101"
              viewBox="0 0 101 101"
              fill="none"
              xmlns="http://www.w3.org/2000/svg"
            >
              <path
                d="M39 100.995V94.0983C32.195 94.0983 25.6688 91.5588 20.8569 87.0386C16.0451 82.5184 13.3418 76.3877 13.3418 69.9951H6C6 87.1159 20.7747 100.995 39 100.995Z"
                fill="#22BBB9"
              />
              <path
                d="M39 85.9951V79.3195C36.2189 79.3164 33.5527 78.3329 31.5863 76.5849C29.6199 74.8369 28.5138 72.467 28.5106 69.9951H21C21 74.2384 22.8964 78.3078 26.272 81.3083C29.6476 84.3089 34.226 85.9948 39 85.9951Z"
                fill="#22BBB9"
              />
              <path
                d="M6 69.9951V63.0992C9.36972 63.099 12.7064 62.4754 15.8195 61.2639C18.9327 60.0525 21.7613 58.277 24.1439 56.0387C26.5265 53.8004 28.4165 51.1433 29.7058 48.2189C30.9952 45.2946 31.6587 42.1603 31.6585 38.9951H39C39 56.1164 24.226 69.9951 6 69.9951Z"
                fill="#34A853"
              />
              <path
                d="M6 54.9951V48.3207C8.78166 48.3178 11.4484 47.3343 13.4151 45.586C15.3817 43.8377 16.4876 41.4673 16.49 38.9951H24C24.0004 41.0961 23.5351 43.1767 22.6307 45.1179C21.7263 47.059 20.4005 48.8229 18.729 50.3087C17.0575 51.7944 15.0731 52.973 12.889 53.7771C10.7049 54.5813 8.36405 54.9951 6 54.9951Z"
                fill="#EE4036"
              />
              <path d="M70 38.9951H39V69.9951H70V38.9951Z" fill="#22BBB9" />
              <path d="M101 38.9951H70V69.9951H101V38.9951Z" fill="#4285F4" />
              <path
                d="M85.5 68.9951C93.5081 68.9951 100 62.5032 100 54.4951C100 46.487 93.5081 39.9951 85.5 39.9951C77.4919 39.9951 71 46.487 71 54.4951C71 62.5032 77.4919 68.9951 85.5 68.9951Z"
                fill="#FFD200"
              />
              <path
                d="M33.4018 33.4015C39.5509 27.2524 39.5509 17.2827 33.4018 11.1336C27.2527 4.98452 17.2831 4.98452 11.1339 11.1336C4.98484 17.2827 4.98484 27.2524 11.1339 33.4015C17.2831 39.5506 27.2527 39.5506 33.4018 33.4015Z"
                fill="#22BBB9"
              />
              <path d="M39 85.9951V100.995H54L39 85.9951Z" fill="#34A853" />
              <path d="M70 100.995V85.4944L54.4993 69.9951H39L69.9986 100.995H70Z" fill="#34A853" />
              <path d="M101 76.9951H70V85.9951H101V76.9951Z" fill="#EE4036" />
              <path d="M101 92.9951H70V100.995H101V92.9951Z" fill="#F07229" />
              <path
                d="M21.9953 5.99512C19.3609 5.99496 16.773 6.73423 14.4917 8.13859C12.2104 9.54294 10.3164 11.5628 9 13.9951H35C33.6835 11.5626 31.7892 9.54259 29.5077 8.13822C27.2262 6.73386 24.638 5.99471 22.0033 5.99512H21.9953Z"
                fill="#FFD200"
              />
              <path d="M70 38.9951H90L70 16.9951V38.9951Z" fill="#22BBB9" />
              <path d="M81 5.99512L101 27.9951V5.99512H81Z" fill="#34A853" />
              <path
                d="M85.5 29.9951C89.6421 29.9951 93 26.6373 93 22.4951C93 18.353 89.6421 14.9951 85.5 14.9951C81.3579 14.9951 78 18.353 78 22.4951C78 26.6373 81.3579 29.9951 85.5 29.9951Z"
                fill="#4285F4"
              />
              <path
                d="M54.5 38.9951C63.0604 38.9951 70 31.6078 70 22.4951C70 13.3824 63.0604 5.99512 54.5 5.99512C45.9396 5.99512 39 13.3824 39 22.4951C39 31.6078 45.9396 38.9951 54.5 38.9951Z"
                fill="#F16522"
              />
            </svg>